#!OML:ASF X:\für Bonn\!DataBase\2005_08_12_Daniel\c3d\Daniel.ASF
:FULLY-SPECIFIED
:DEGREES
145
root -3.5323 14.053 -1.06715 400.398 -88.4967 -418.689
lowerback 36.6995 -3.46223 5.23459
upperback 3.4589 -3.15658 -1.78655
thorax -14.8373 -1.94105 -3.2748
lowerneck 5.40613 2.94944 -2.05213
upperneck -2.30616 3.75619 -0.673165
head -1.65624 1.90573 0.0208261
rclavicle 6.01324e-015 -1.98785e-016
rhumerus 78.4658 -23.5225 -178.36
rradius 8.93026
rwrist 146.406
rhand -21.8075 12.7998
rfingers 7.12502
rthumb 4.59468 -17.1303
lclavicle 6.01324e-015 -1.98785e-016
lhumerus 62.5939 7.26524 105.215
lradius 8.49041
lwrist -81.1412
lhand -14.4953 4.35039
lfingers 7.12502
lthumb 11.6515 34.0064
rfemur -23.7783 -27.4636 0.407627
rtibia 85.6984
rfoot 354.935 29.6192
rtoes 1.22113
lfemur -207.001 161.285 -182.194
ltibia 85.3532
lfoot -19.2187 -34.812
ltoes 10.4226
146
root -3.55001 14.2261 -1.067 399.69 -88.5013 -417.632
lowerback 36.1372 -3.43919 5.19342
upperback 3.35408 -3.15455 -1.79535
thorax -14.7445 -1.93269 -3.28242
lowerneck 5.23672 2.99339 -1.95588
upperneck -2.15117 3.82781 -0.665121
head -1.57464 1.93891 0.00941038
rclavicle -9.0447e-015 -5.36719e-015
rhumerus 78.3369 -23.7266 -178.196
rradius 9.03738
rwrist 146.456
rhand -21.8596 12.8782
rfingers 7.12502
rthumb 4.54438 -17.0531
lclavicle -9.0447e-015 -5.36719e-015
lhumerus 62.363 7.48892 105.43
lradius 8.50113
lwrist -81.4581
lhand -14.3635 4.38974
lfingers 7.12502
lthumb 11.7786 34.0385
rfemur -22.8829 -26.9158 1.05077
rtibia 83.5849
rfoot 354.257 28.7748
rtoes 1.04914
lfemur -206.016 161.974 -182.805
ltibia 83.2182
lfoot -19.9257 -33.7552
ltoes 9.99807
147
root -3.56746 14.3966 -1.06751 399.16 -88.4971 -416.747
lowerback 35.4957 -3.4115 5.16449
upperback 3.32244 -3.14806 -1.80478
thorax -14.6497 -1.92348 -3.30428
lowerneck 5.0803 3.02333 -1.86225
upperneck -2.02996 3.87941 -0.661017
head -1.50632 1.96265 -0.00256039
rclavicle 1.98785e-014 -5.36719e-015
rhumerus 78.2357 -23.9324 -178.04
rradius 9.11026
rwrist 146.476
rhand -21.9462 12.9198
rfingers 7.12502
rthumb 4.46073 -17.0133
lclavicle 1.98785e-014 -5.36719e-015
lhumerus 62.1329 7.69862 105.641
lradius 8.49213
lwrist -81.7425
lhand -14.3143 4.43679
lfingers 7.12502
lthumb 11.826 34.0829
rfemur -21.9941 -26.3952 1.68718
rtibia 81.4599
rfoot 353.593 27.9028
rtoes 0.907277
lfemur -205.059 162.657 -183.379
ltibia 81.0933
lfoot -20.4208 -32.6889
ltoes 9.69044
148
root -3.58527 14.5633 -1.06816 398.144 -88.4992 -415.382
lowerback 34.9353 -3.39464 5.10938
upperback 3.21373 -3.15862 -1.81204
thorax -14.5572 -1.92022 -3.29716
lowerneck 4.87986 3.06717 -1.79565
upperneck -1.86807 3.94943 -0.635674
head -1.41861 1.99508 -0.00265789
rclavicle 7.95139e-016 5.1684e-015
rhumerus 78.0766 -24.1361 -177.874
rradius 9.19924
rwrist 146.465
rhand -22.042 12.9641
rfingers 7.12502
rthumb 4.36823 -16.9709
lclavicle 7.95139e-016 5.1684e-015
lhumerus 61.9233 7.94442 105.848
lradius 8.49149
lwrist -82.0586
lhand -14.2175 4.48301
lfingers 7.12502
lthumb 11.9194 34.1237
rfemur -21.0922 -25.8847 2.28046
rtibia 79.3242
rfoot 352.971 27.0437
rtoes 0.707875
lfemur -204.116 163.355 -183.965
ltibia 78.9731
lfoot -20.8651 -31.5593
ltoes 9.27928
149
root -3.60248 14.7276 -1.0681 397.617 -88.5022 -414.482
lowerback 34.3648 -3.37039 5.05714
upperback 3.08844 -3.15595 -1.80999
thorax -14.4746 -1.91121 -3.28753
lowerneck 4.72634 3.11319 -1.69822
upperneck -1.70807 4.02124 -0.65021
head -1.33845 2.02904 -0.0208382
rclavicle -1.41137e-014 -2.78299e-015
rhumerus 77.9382 -24.3398 -177.698
rradius 9.26439
rwrist 146.455
rhand -22.1577 13.0484
rfingers 7.12502
rthumb 4.25644 -16.8888
lclavicle -1.41137e-014 -2.78299e-015
lhumerus 61.6855 8.19465 106.063
lradius 8.51081
lwrist -82.2848
lhand -14.1787 4.51982
lfingers 7.12502
lthumb 11.9568 34.1583
rfemur -20.2082 -25.3831 2.87635
rtibia 77.1627
rfoot 352.344 26.1561
rtoes 0.536274
lfemur -203.207 164.057 -184.539
ltibia 76.8642
lfoot -21.3003 -30.3913
ltoes 8.83277
150
root -3.6193 14.8912 -1.06871 396.611 -88.5109 -413.133
lowerback 33.8289 -3.34865 5.00987
upperback 2.98035 -3.1584 -1.83097
thorax -14.385 -1.90577 -3.30239
lowerneck 4.52246 3.1453 -1.5896
upperneck -1.54582 4.0767 -0.644213
head -1.24922 2.0545 -0.032976
rclavicle -1.05107e-014 3.57812e-015
rhumerus 77.8093 -24.5164 -177.555
rradius 9.35587
rwrist 146.443
rhand -22.2795 13.0938
rfingers 7.12502
rthumb 4.13883 -16.8458
lclavicle -1.05107e-014 3.57812e-015
lhumerus 61.4881 8.42087 106.253
lradius 8.50591
lwrist -82.5114
lhand -14.1432 4.54627
lfingers 7.12502
lthumb 11.991 34.1828
rfemur -19.2808 -24.8506 3.44298
rtibia 74.9763
rfoot 351.669 25.269
rtoes 0.231109
lfemur -202.263 164.794 -185.111
ltibia 74.7461
lfoot -21.7593 -29.1515
ltoes 8.22294
151
root -3.6362 15.0501 -1.06924 396.094 -88.5238 -412.251
lowerback 33.2923 -3.31984 4.95303
upperback 2.84254 -3.15034 -1.83576
thorax -14.3239 -1.89504 -3.29877
lowerneck 4.43638 3.17418 -1.48588
upperneck -1.44566 4.12294 -0.672179
head -1.19971 2.07658 -0.0571138
rclavicle 9.96408e-015 7.15625e-015
rhumerus 77.6886 -24.6857 -177.4
rradius 9.38593
rwrist 146.405
rhand -22.3606 13.0489
rfingers 7.12502
rthumb 4.0606 -16.8922
lclavicle 9.96408e-015 7.15625e-015
lhumerus 61.2478 8.68668 106.446
lradius 8.51882
lwrist -82.7342
lhand -14.1776 4.56083
lfingers 7.12502
lthumb 11.9579 34.1993
rfemur -18.3829 -24.2974 4.02798
rtibia 72.7779
rfoot 351.029 24.308
rtoes -0.0493535
lfemur -201.348 165.537 -185.666
ltibia 72.6439
lfoot -22.1845 -27.9005
ltoes 7.59231
152
root -3.65358 15.2056 -1.06895 395.577 -88.5435 -411.383
lowerback 32.7736 -3.29256 4.8986
upperback 2.70582 -3.14328 -1.84361
thorax -14.2663 -1.88531 -3.29864
lowerneck 4.32751 3.21438 -1.39486
upperneck -1.31307 4.18468 -0.674458
head -1.13699 2.10584 -0.0707289
rclavicle 3.8763e-015 9.54166e-015
rhumerus 77.5597 -24.7894 -177.258
rradius 9.42988
rwrist 146.308
rhand -22.3213 13.0243
rfingers 7.12502
rthumb 4.09855 -16.916
lclavicle 3.8763e-015 9.54166e-015
lhumerus 61.0516 8.94336 106.644
lradius 8.47518
lwrist -82.84
lhand -14.2675 4.54875
lfingers 7.12502
lthumb 11.8711 34.1922
rfemur -17.4622 -23.7421 4.58535
rtibia 70.5597
rfoot 350.349 23.349
rtoes -0.549321
lfemur -200.422 166.32 -186.22
ltibia 70.5402
lfoot -22.5624 -26.5958
ltoes 6.91535
153
root -3.67243 15.3579 -1.06884 394.226 -88.5666 -409.66
lowerback 32.2095 -3.26824 4.84188
upperback 2.575 -3.14537 -1.86867
thorax -14.1816 -1.87973 -3.31378
lowerneck 4.21411 3.24719 -1.32155
upperneck -1.17162 4.23596 -0.656251
head -1.0717 2.12967 -0.0746001
rclavicle 4.22417e-015 5.96354e-015
rhumerus 77.4693 -24.893 -177.137
rradius 9.41924
rwrist 146.124
rhand -22.1972 12.9877
rfingers 7.12502
rthumb 4.2183 -16.9503
lclavicle 4.22417e-015 5.96354e-015
lhumerus 60.8501 9.19437 106.821
lradius 8.46031
lwrist -83.0049
lhand -14.3378 4.56555
lfingers 7.12502
lthumb 11.8034 34.2129
rfemur -16.5546 -23.1705 5.12959
rtibia 68.3297
rfoot 349.688 22.3252
rtoes -1.10302
lfemur -199.529 167.136 -186.793
ltibia 68.4468
lfoot -22.8768 -25.2622
ltoes 6.30312
154
root -3.69317 15.5079 -1.06965 393.672 -88.5795 -408.741
lowerback 31.6423 -3.2381 4.77564
upperback 2.44867 -3.13963 -1.86772
thorax -14.0837 -1.86947 -3.2988
lowerneck 4.13537 3.28816 -1.25038
upperneck -1.0731 4.29646 -0.653623
head -1.02573 2.15876 -0.0841285
rclavicle -9.41742e-015 7.95139e-016
rhumerus 77.3445 -24.9972 -176.984
rradius 9.40061
rwrist 145.909
rhand -22.0888 12.9095
rfingers 7.12502
rthumb 4.32299 -17.0263
lclavicle -9.41742e-015 7.95139e-016
lhumerus 60.662 9.46346 107.02
lradius 8.45162
lwrist -83.1136
lhand -14.4236 4.55999
lfingers 7.12502
lthumb 11.7207 34.2121
rfemur -15.6194 -22.4804 5.72112
rtibia 66.0678
rfoot 349.02 21.2474
rtoes -1.61658
lfemur -198.626 167.972 -187.328
ltibia 66.3475
lfoot -23.1617 -23.9027
ltoes 5.68699
155
root -3.71416 15.653 -1.06988 392.08 -88.6216 -406.787
lowerback 31.0863 -3.20014 4.68478
upperback 2.30706 -3.13305 -1.8827
thorax -14.0051 -1.85829 -3.28764
lowerneck 4.09098 3.31569 -1.186
upperneck -0.947949 4.33773 -0.655306
head -0.977348 2.17814 -0.0936887
rclavicle -1.41137e-014 8.74653e-015
rhumerus 77.202 -25.1576 -176.829
rradius 9.39624
rwrist 145.575
rhand -21.9102 12.8435
rfingers 7.12502
rthumb 4.49549 -17.0888
lclavicle -1.41137e-014 8.74653e-015
lhumerus 60.4724 9.7351 107.208
lradius 8.39787
lwrist -83.1901
lhand -14.5298 4.53561
lfingers 7.12502
lthumb 11.6182 34.1935
rfemur -14.6826 -21.6659 6.29605
rtibia 63.7971
rfoot 348.302 20.034
rtoes -2.18412
lfemur -197.727 168.826 -187.9
ltibia 64.2573
lfoot -23.3983 -22.476
ltoes 4.9823
156
root -3.73523 15.7948 -1.07077 391.469 -88.6337 -405.815
lowerback 30.5224 -3.16743 4.62999
upperback 2.17168 -3.11905 -1.88455
thorax -13.9122 -1.84549 -3.28489
lowerneck 4.07903 3.34582 -1.17932
upperneck -0.874049 4.37939 -0.622641
head -0.952803 2.19791 -0.0845664
rclavicle 2.83268e-015 -5.96354e-015
rhumerus 77.0689 -25.3958 -176.644
rradius 9.36615
rwrist 145.179
rhand -21.7717 12.823
rfingers 7.12502
rthumb 4.62924 -17.1064
lclavicle 2.83268e-015 -5.96354e-015
lhumerus 60.3039 9.97961 107.416
lradius 8.34312
lwrist -83.2999
lhand -14.6792 4.52984
lfingers 7.12502
lthumb 11.4741 34.1958
rfemur -13.7351 -20.7587 6.93279
rtibia 61.5072
rfoot 347.623 18.7388
rtoes -2.67184
lfemur -196.848 169.711 -188.413
ltibia 62.1857
lfoot -23.5696 -21.0717
ltoes 4.28493
157
root -3.75641 15.9299 -1.07174 390.129 -88.653 -404.116
lowerback 29.9702 -3.13766 4.55176
upperback 2.0206 -3.11605 -1.8917
thorax -13.8397 -1.83683 -3.27011
lowerneck 4.06394 3.38207 -1.14793
upperneck -0.774893 4.43031 -0.599296
head -0.91906 2.22216 -0.0821185
rclavicle -1.30204e-014 2.38542e-015
rhumerus 76.895 -25.7612 -176.433
rradius 9.3393
rwrist 144.749
rhand -21.7171 12.7967
rfingers 7.12502
rthumb 4.68193 -17.1315
lclavicle -1.30204e-014 2.38542e-015
lhumerus 60.0963 10.2672 107.596
lradius 8.34431
lwrist -83.3474
lhand -14.7454 4.42398
lfingers 7.12502
lthumb 11.4103 34.0935
rfemur -12.7906 -19.8568 7.52761
rtibia 59.228
rfoot 346.965 17.4353
rtoes -3.34583
lfemur -195.988 170.632 -188.935
ltibia 60.1442
lfoot -23.6705 -19.6494
ltoes 3.72099
